<?xml version="1.0" encoding="UTF-8"?>
<!DOCTYPE svg PUBLIC "-//W3C//DTD SVG 1.1//EN" "http://www.w3.org/Graphics/SVG/1.1/DTD/svg11.dtd">
<svg xmlns="http://www.w3.org/2000/svg" version="1.1" width="512px" height="512px" style="shape-rendering:geometricPrecision; text-rendering:geometricPrecision; image-rendering:optimizeQuality; fill-rule:evenodd; clip-rule:evenodd" xmlns:xlink="http://www.w3.org/1999/xlink">
<g><path style="opacity:0.977" fill="#333333" d="M 84.5,71.5 C 90.072,70.9896 95.4053,71.8229 100.5,74C 152.014,125.68 203.68,177.18 255.5,228.5C 307.32,177.18 358.986,125.68 410.5,74C 420.771,69.2903 429.604,71.1236 437,79.5C 440.333,86.5 440.333,93.5 437,100.5C 385.32,152.014 333.82,203.68 282.5,255.5C 333.82,307.32 385.32,358.986 437,410.5C 441.71,420.771 439.876,429.604 431.5,437C 424.5,440.333 417.5,440.333 410.5,437C 358.986,385.32 307.32,333.82 255.5,282.5C 203.68,333.82 152.014,385.32 100.5,437C 90.229,441.71 81.3957,439.876 74,431.5C 70.6667,424.5 70.6667,417.5 74,410.5C 125.68,358.986 177.18,307.32 228.5,255.5C 177.18,203.68 125.68,152.014 74,100.5C 68.34,87.3005 71.84,77.6338 84.5,71.5 Z"/></g>
</svg>
